<?xml version="1.0" encoding="UTF-8"?>
<svg version="1.1" xmlns="http://www.w3.org/2000/svg" width="2048" height="2048">
<path d="M0 0 C675.84 0 1351.68 0 2048 0 C2048 675.84 2048 1351.68 2048 2048 C1372.16 2048 696.32 2048 0 2048 C0 1372.16 0 696.32 0 0 Z " fill="#FEFEFE" transform="translate(0,0)"/>
<path d="M0 0 C675.84 0 1351.68 0 2048 0 C2048 675.84 2048 1351.68 2048 2048 C1372.16 2048 696.32 2048 0 2048 C0 1372.16 0 696.32 0 0 Z M114 114 C114 714.6 114 1315.2 114 1934 C714.6 1934 1315.2 1934 1934 1934 C1934 1333.4 1934 732.8 1934 114 C1333.4 114 732.8 114 114 114 Z " fill="#752828" transform="translate(0,0)"/>
<path d="M0 0 C262.68 0 525.36 0 796 0 C796 262.68 796 525.36 796 796 C533.32 796 270.64 796 0 796 C0 533.32 0 270.64 0 0 Z " fill="#752828" transform="translate(626,626)"/>
<path d="M0 0 C0.01713055 60.7154992 0.03303124 121.43099867 0.04234314 182.14649963 C0.0424812 183.04436439 0.04261925 183.94222915 0.04276149 184.86730193 C0.04575404 204.37788154 0.04852427 223.88846117 0.05106533 243.39904084 C0.05231272 252.96630393 0.05360927 262.533567 0.05493164 272.10083008 C0.05512778 273.52895613 0.05512778 273.52895613 0.05532788 274.98593322 C0.05959318 305.87459703 0.06710743 336.76325901 0.07629722 367.65192171 C0.08571974 399.38027467 0.0918831 431.10862662 0.09391499 462.83698096 C0.09420317 467.31304878 0.0945288 471.78911659 0.09487724 476.2651844 C0.09494467 477.14618384 0.09501209 478.02718327 0.09508156 478.93487965 C0.09626566 493.1462532 0.10091014 507.35762363 0.10683203 521.5689959 C0.11270478 535.83821646 0.11497163 550.10743391 0.11350138 564.37665563 C0.1127378 572.86589017 0.11479519 581.3551134 0.12079754 589.84434591 C0.1249637 596.16553832 0.12397514 602.48671967 0.12089889 608.80791248 C0.12047294 611.37857307 0.12177089 613.94923459 0.12488318 616.51989334 C0.12884265 619.98951067 0.12676622 623.45907082 0.12304783 626.9286871 C0.12567484 627.94802813 0.12830186 628.96736916 0.13100848 630.01759931 C0.12876118 630.93293336 0.12651389 631.84826742 0.1241985 632.79133886 C0.12435448 633.58606014 0.12451046 634.38078142 0.12467116 635.19958517 C0 637 0 637 -1 638 C-2.40014495 638.09695416 -3.8051634 638.12447396 -5.20866114 638.1241985 C-6.12399519 638.12644579 -7.03932924 638.12869308 -7.98240069 638.13100848 C-9.51141223 638.12706796 -9.51141223 638.12706796 -11.0713129 638.12304783 C-12.14796079 638.12420167 -13.22460867 638.12535552 -14.33388224 638.12654433 C-17.99034914 638.12921959 -21.64677319 638.1246814 -25.30323792 638.12025452 C-27.93159891 638.12069003 -30.55995986 638.12156458 -33.18832058 638.12284368 C-38.92799853 638.12492326 -44.66766615 638.12326374 -50.40734291 638.11920547 C-58.94212462 638.11318761 -67.47689978 638.11286807 -76.01168323 638.11374746 C-90.36630176 638.11506356 -104.72091571 638.11171164 -119.07553291 638.10573006 C-133.29529404 638.09981981 -147.51505325 638.09596548 -161.7348156 638.09487724 C-162.61784976 638.0948085 -163.50088392 638.09473976 -164.41067669 638.09466894 C-168.89487634 638.09433062 -173.37907599 638.09402923 -177.86327564 638.09374207 C-209.65258545 638.09163978 -241.44189277 638.0848972 -273.23120117 638.07543945 C-304.12052395 638.06626005 -335.00984605 638.05917398 -365.89916992 638.05493164 C-366.85075201 638.05480011 -367.8023341 638.05466859 -368.78275201 638.05453308 C-378.33863814 638.05321459 -387.89452427 638.05193877 -397.45041041 638.05069422 C-416.9181071 638.04815778 -436.38580374 638.04533652 -455.85350037 638.04234314 C-456.74865952 638.04220585 -457.64381867 638.04206856 -458.56610386 638.04192711 C-518.37740362 638.03272123 -578.18870198 638.01687543 -638 638 C-632.82335335 631.73375705 -627.16043726 626.02059654 -621.40994549 620.28410435 C-620.32691796 619.20003267 -619.24410945 618.11574215 -618.16149923 617.03125373 C-615.18522732 614.05108963 -612.20585386 611.07404332 -609.2259645 608.09749695 C-605.98495293 604.85902201 -602.74684083 601.61765009 -599.50835782 598.37664694 C-593.83199894 592.6966751 -588.15378015 587.01856793 -582.47434044 581.34167671 C-574.02919496 572.90031051 -565.58690554 564.45609226 -557.14517909 556.01130705 C-542.07070431 540.93156365 -526.99336611 525.85468579 -511.91481332 510.7790202 C-498.72322445 497.58994491 -485.53256297 484.39994302 -472.34282875 471.20901299 C-471.03148787 469.89755752 -471.03148787 469.89755752 -469.69365525 468.55960801 C-466.14512634 465.01076778 -462.59660097 461.46192401 -459.04808142 457.91307442 C-426.22898151 425.09095841 -393.40708624 392.27163886 -360.58382497 359.45368446 C-330.49946 329.37417835 -300.41764064 299.29212887 -270.33813477 269.20776367 C-262.75470819 261.62311596 -255.17127656 254.0384733 -247.58780956 246.453866 C-246.88744308 245.75339385 -246.88744308 245.75339385 -246.17292777 245.03877074 C-220.98702564 219.84909452 -195.79882232 194.66171964 -170.6098612 169.47510237 C-167.06926841 165.93483032 -163.52867958 162.39455432 -159.98809242 158.85427666 C-158.68036013 157.54666298 -158.68036013 157.54666298 -157.346209 156.21263287 C-144.15677151 143.02433484 -130.96857215 129.83479955 -117.78096581 116.64467049 C-102.79704418 101.65789686 -87.81135171 86.67289653 -72.82328393 71.69026936 C-64.4257558 63.29568859 -56.02962165 54.89971913 -47.63544638 46.50178563 C-42.03957939 40.90368865 -36.44191928 35.30738908 -30.84275051 29.71259453 C-27.64533476 26.51757433 -24.448741 23.32174273 -21.25430503 20.12374306 C-18.35521499 17.22145154 -15.45388362 14.32142145 -12.55065316 11.42327185 C-11.50068039 10.37431627 -10.45156638 9.3245003 -9.40336342 8.27377618 C-7.992289 6.85954573 -6.57789312 5.44863155 -5.16328496 4.03793579 C-4.37739319 3.25211178 -3.59150141 2.46628777 -2.78179474 1.6566509 C-1 0 -1 0 0 0 Z " fill="#752828" transform="translate(1821,1183)"/>
<path d="M0 0 C4.1562479 3.5624982 8.06634536 6.94132783 11.90255588 10.77720672 C13.27858159 12.14947715 13.27858159 12.14947715 14.6824058 13.54947022 C15.68320187 14.55254247 16.68395189 15.55566067 17.68466091 16.55881977 C18.76532174 17.63843644 19.8462014 18.71783409 20.92727897 19.79703346 C23.89797264 22.76383507 26.86554866 25.73373805 29.83262464 28.70415709 C33.06083351 31.93490265 36.29193943 35.16274866 39.52267653 38.39096564 C45.18462358 44.04929978 50.84470602 49.70949377 56.50357246 55.37090874 C64.91813614 63.78925173 73.3355519 72.20473861 81.75353459 80.61966256 C96.78542153 95.6462809 111.81444296 110.67576262 126.8422521 125.70645898 C139.98944861 138.85616908 153.13757174 152.00495178 166.286623 165.15280724 C167.59391942 166.45998908 167.59391942 166.45998908 168.92762587 167.79357864 C172.46521221 171.33085365 176.00280209 174.86812513 179.54039778 178.40539079 C212.25834928 211.12032619 244.97350428 243.83805689 277.68729418 276.55715367 C307.6713048 306.54602316 337.65785881 336.53234703 367.64672852 366.51635742 C400.78741872 399.65169493 433.92649633 432.78864401 467.06296355 465.92820472 C470.59200163 469.45756353 474.12104365 472.9869184 477.65008736 476.51627159 C478.51906351 477.38532682 479.38803966 478.25438205 480.28334842 479.14977228 C493.42978329 492.29734663 506.57745544 505.44368285 519.72572136 518.58942604 C534.66491785 533.52577052 549.60234103 548.46388585 564.53739106 563.40437648 C572.90531041 571.7752432 581.27461844 580.14471593 589.64589053 588.51222978 C595.22621576 594.09032502 600.80474357 599.67021337 606.38176637 605.25161039 C609.56663616 608.43887573 612.75231733 611.62531906 615.94016659 614.80960462 C618.83324784 617.69948439 621.72406761 620.59160546 624.61300695 623.48562564 C625.65862844 624.53226432 626.70511031 625.57804423 627.75250034 626.6229131 C629.16224664 628.02950336 630.56867666 629.43941509 631.97488827 630.8495391 C632.75821659 631.63293518 633.54154491 632.41633127 634.34861046 633.22346662 C636 635 636 635 636 636 C426.12 636 216.24 636 0 636 C0 426.12 0 216.24 0 0 Z " fill="#752828" transform="translate(228,1184)"/>
<path d="M0 0 C209.88 0 419.76 0 636 0 C632.4375018 4.1562479 629.05867217 8.06634536 625.22279328 11.90255588 C624.30794633 12.81990636 623.39309937 13.73725683 622.45052978 14.6824058 C621.44745753 15.68320187 620.44433933 16.68395189 619.44118023 17.68466091 C618.36156356 18.76532174 617.28216591 19.8462014 616.20296654 20.92727897 C613.23616493 23.89797264 610.26626195 26.86554866 607.29584291 29.83262464 C604.06509735 33.06083351 600.83725134 36.29193943 597.60903436 39.52267653 C591.95070022 45.18462358 586.29050623 50.84470602 580.62909126 56.50357246 C572.21074827 64.91813614 563.79526139 73.3355519 555.38033744 81.75353459 C540.3537191 96.78542153 525.32423738 111.81444296 510.29354102 126.8422521 C497.14383092 139.98944861 483.99504822 153.13757174 470.84719276 166.286623 C469.9757382 167.15815395 469.10428364 168.0296849 468.20642136 168.92762587 C464.66914635 172.46521221 461.13187487 176.00280209 457.59460921 179.54039778 C424.87967381 212.25834928 392.16194311 244.97350428 359.44284633 277.68729418 C329.45397684 307.6713048 299.46765297 337.65785881 269.48364258 367.64672852 C236.34830507 400.78741872 203.21135599 433.92649633 170.07179528 467.06296355 C166.54243647 470.59200163 163.0130816 474.12104365 159.48372841 477.65008736 C158.18014557 478.95355158 158.18014557 478.95355158 156.85022772 480.28334842 C143.70265337 493.42978329 130.55631715 506.57745544 117.41057396 519.72572136 C102.47422948 534.66491785 87.53611415 549.60234103 72.59562352 564.53739106 C64.2247568 572.90531041 55.85528407 581.27461844 47.48777022 589.64589053 C41.90967498 595.22621576 36.32978663 600.80474357 30.74838961 606.38176637 C27.56112427 609.56663616 24.37468094 612.75231733 21.19039538 615.94016659 C18.30051561 618.83324784 15.40839454 621.72406761 12.51437436 624.61300695 C11.46773568 625.65862844 10.42195577 626.70511031 9.3770869 627.75250034 C7.97049664 629.16224664 6.56058491 630.56867666 5.1504609 631.97488827 C4.36706482 632.75821659 3.58366873 633.54154491 2.77653338 634.34861046 C1 636 1 636 0 636 C0 426.12 0 216.24 0 0 Z " fill="#752828" transform="translate(228,228)"/>
<path d="M0 0 C209.88 0 419.76 0 636 0 C636 209.55 636 419.1 636 635 C632.24507409 633.12253705 630.36291964 631.61279332 627.45080352 628.70035118 C626.53589467 627.79019315 625.62098583 626.88003511 624.67835248 625.94229653 C623.66469042 624.92379179 622.6511198 623.90519604 621.63763046 622.88651943 C620.55556331 621.80623439 619.47305787 620.72638822 618.39015305 619.64694288 C615.39870399 616.66248579 612.41355995 613.67178959 609.42935632 610.68009007 C606.18812885 607.43291052 602.94112655 604.19151443 599.69483972 600.94939429 C594.00056598 595.26081801 588.31003917 589.56851473 582.62191772 583.87378693 C574.16378974 575.40586239 565.69996788 566.94364636 557.23497027 558.48258977 C542.9969901 544.250893 528.76375038 530.01446406 514.53325653 515.77528191 C500.43807148 501.67149284 486.34104447 487.56954944 472.24146271 473.47015572 C471.3655665 472.59426716 470.4896703 471.71837859 469.58723178 470.81594796 C466.0320202 467.26077728 462.47679626 463.70561896 458.92155549 460.15047748 C434.09981554 435.32941192 409.27979096 410.50663203 384.46377182 385.67984676 C383.76191436 384.97768489 383.76191436 384.97768489 383.04587795 384.26133793 C375.44692364 376.6590747 367.84806249 369.05671834 360.24920603 361.4543573 C330.10304307 331.29430232 299.9532567 301.13787495 269.79980469 270.98510742 C268.84655487 270.03187799 267.89330514 269.07864848 266.9400555 268.12541887 C265.03583336 266.22123691 263.13161091 264.31705524 261.22738828 262.41287376 C256.95798735 258.14356425 252.68858995 253.8742512 248.41919932 249.60493139 C247.47365006 248.6593979 246.52810047 247.71386475 245.58255054 246.76833194 C220.34180112 221.52802747 195.10351 196.28526527 169.86614633 171.04157549 C168.98572351 170.1609324 168.10530069 169.28028931 167.19819839 168.37296006 C163.65749699 164.83137039 160.11679564 161.28978066 156.57610725 157.74817797 C144.2358987 145.40480454 131.89486041 133.06226124 119.55329012 120.72024935 C103.65429842 104.82066168 87.75699634 88.9193877 71.86263916 73.01516693 C63.44806144 64.59545811 55.03211458 56.17712332 46.61421332 47.76073728 C41.00268428 42.14993904 35.39295943 36.53734141 29.78474747 30.92322762 C26.5820035 27.71721303 23.37845101 24.51201727 20.17273423 21.30897497 C17.26339823 18.40203114 14.35632552 15.49284474 11.45113523 12.58175786 C10.39962312 11.52893267 9.34725076 10.47696586 8.29397042 9.42590966 C6.87629627 8.01099104 5.46193882 6.59275149 4.04779983 5.17429966 C3.26005675 4.38626508 2.47231367 3.5982305 1.66069959 2.78631609 C0 1 0 1 0 0 Z " fill="#752828" transform="translate(1184,228)"/>
<path d="M0 0 C187.44 0 374.88 0 568 0 C564.34941654 4.25901404 560.87023655 8.25459162 556.93570137 12.18734646 C556.46109879 12.66310288 555.98649622 13.1388593 555.49751174 13.62903258 C553.92152111 15.20765028 552.34201797 16.78270346 550.76248169 18.35777283 C549.61452032 19.5061707 548.4667789 20.65478848 547.31923759 21.80360609 C544.17679893 24.94827417 541.0312619 28.08982674 537.88519812 31.23086751 C534.48877513 34.62296384 531.09525101 38.01795811 527.70137024 41.41259766 C521.82466356 47.28982816 515.9461317 53.16522792 510.06634903 59.03938103 C501.56521793 67.53237807 493.06685615 76.02814173 484.56916331 84.52457876 C470.78146322 98.31009132 456.9915324 112.09337018 443.20019531 125.87524414 C429.80481669 139.26144089 416.41049089 152.64868965 403.01757812 166.03735352 C402.19175669 166.86291223 401.36593526 167.68847094 400.51508893 168.53904658 C396.37210779 172.68072266 392.22914733 176.82241942 388.08619714 180.96412647 C353.72733603 215.3126243 319.36485308 249.65749707 285 284 C281.29774945 282.44804463 278.94309194 280.19270125 276.11932755 277.36821651 C275.64027916 276.89177542 275.16123078 276.41533432 274.66766578 275.92445561 C273.05737237 274.32047814 271.45432856 272.70944527 269.85113525 271.09837341 C268.68903931 269.93786518 267.52650584 268.77779492 266.36357188 267.61812645 C263.16424875 264.42522941 259.97121547 261.22610565 256.7791574 258.02594769 C253.33766576 254.57788866 249.89042565 251.13558527 246.44389343 247.69256592 C239.69180628 240.94552523 232.94508029 234.19314783 226.20014057 227.43896275 C218.35251915 219.58097025 210.49968639 211.72819441 202.64663467 203.87562943 C188.64100268 189.87049829 174.6402111 175.86053815 160.64208984 161.84790039 C147.0438301 148.23554604 133.44206602 134.62670607 119.83642578 121.02172852 C118.57898349 119.76434615 118.57898349 119.76434615 117.29613832 118.48156213 C116.45932361 117.64478777 115.62250889 116.80801342 114.76033616 115.94588226 C99.28994772 100.47618275 83.82284739 85.0031994 68.35728367 69.52867655 C62.87820931 64.04657974 57.39815303 58.56546564 51.91779327 53.08465385 C45.24589053 46.41207064 38.57587188 39.73761054 31.90823588 33.06076365 C28.50295734 29.65085232 25.09687967 26.24174938 21.68865776 22.83477974 C18.5742494 19.72146026 15.46213287 16.60586951 12.35190269 13.48837615 C11.22100597 12.3556547 10.08924981 11.22379058 8.95659068 10.09283143 C7.42786186 8.56614465 5.90218831 7.03647149 4.37730789 5.50594234 C3.52586488 4.65379491 2.67442187 3.80164747 1.79717755 2.92367738 C0 1 0 1 0 0 Z " fill="#752828" transform="translate(740,1536)"/>
<path d="M0 0 C4.25901404 3.65058346 8.25459162 7.12976345 12.18734646 11.06429863 C12.66310288 11.53890121 13.1388593 12.01350378 13.62903258 12.50248826 C15.20765028 14.07847889 16.78270346 15.65798203 18.35777283 17.23751831 C19.5061707 18.38547968 20.65478848 19.5332211 21.80360609 20.68076241 C24.94827417 23.82320107 28.08982674 26.9687381 31.23086751 30.11480188 C34.62296384 33.51122487 38.01795811 36.90474899 41.41259766 40.29862976 C47.28982816 46.17533644 53.16522792 52.0538683 59.03938103 57.93365097 C67.53237807 66.43478207 76.02814173 74.93314385 84.52457876 83.43083669 C98.31009132 97.21853678 112.09337018 111.0084676 125.87524414 124.79980469 C139.26144089 138.19518331 152.64868965 151.58950911 166.03735352 164.98242188 C166.86291223 165.80824331 167.68847094 166.63406474 168.53904658 167.48491107 C172.68072266 171.62789221 176.82241942 175.77085267 180.96412647 179.91380286 C215.3126243 214.27266397 249.65749707 248.63514692 284 283 C282.44804463 286.70225055 280.19270125 289.05690806 277.36821651 291.88067245 C276.89177542 292.35972084 276.41533432 292.83876922 275.92445561 293.33233422 C274.32047814 294.94262763 272.70944527 296.54567144 271.09837341 298.14886475 C269.93786518 299.31096069 268.77779492 300.47349416 267.61812645 301.63642812 C264.42522941 304.83575125 261.22610565 308.02878453 258.02594769 311.2208426 C254.57788866 314.66233424 251.13558527 318.10957435 247.69256592 321.55610657 C240.94552523 328.30819372 234.19314783 335.05491971 227.43896275 341.79985943 C219.58097025 349.64748085 211.72819441 357.50031361 203.87562943 365.35336533 C189.87049829 379.35899732 175.86053815 393.3597889 161.84790039 407.35791016 C148.23554604 420.9561699 134.62670607 434.55793398 121.02172852 448.16357422 C119.76434615 449.42101651 119.76434615 449.42101651 118.48156213 450.70386168 C117.64478777 451.54067639 116.80801342 452.37749111 115.94588226 453.23966384 C100.47618275 468.71005228 85.0031994 484.17715261 69.52867655 499.64271633 C64.04657974 505.12179069 58.56546564 510.60184697 53.08465385 516.08220673 C46.41207064 522.75410947 39.73761054 529.42412812 33.06076365 536.09176412 C29.65085232 539.49704266 26.24174938 542.90312033 22.83477974 546.31134224 C19.72146026 549.4257506 16.60586951 552.53786713 13.48837615 555.64809731 C12.3556547 556.77899403 11.22379058 557.91075019 10.09283143 559.04340932 C8.56614465 560.57213814 7.03647149 562.09781169 5.50594234 563.62269211 C4.22772119 564.89985663 4.22772119 564.89985663 2.92367738 566.20282245 C1 568 1 568 0 568 C0 380.56 0 193.12 0 0 Z " fill="#752828" transform="translate(1536,740)"/>
<path d="M0 0 C0 187.44 0 374.88 0 568 C-4.25901404 564.34941654 -8.25459162 560.87023655 -12.18734646 556.93570137 C-12.66310288 556.46109879 -13.1388593 555.98649622 -13.62903258 555.49751174 C-15.20765028 553.92152111 -16.78270346 552.34201797 -18.35777283 550.76248169 C-19.5061707 549.61452032 -20.65478848 548.4667789 -21.80360609 547.31923759 C-24.94827417 544.17679893 -28.08982674 541.0312619 -31.23086751 537.88519812 C-34.62296384 534.48877513 -38.01795811 531.09525101 -41.41259766 527.70137024 C-47.28982816 521.82466356 -53.16522792 515.9461317 -59.03938103 510.06634903 C-67.53237807 501.56521793 -76.02814173 493.06685615 -84.52457876 484.56916331 C-98.31009132 470.78146322 -112.09337018 456.9915324 -125.87524414 443.20019531 C-139.26144089 429.80481669 -152.64868965 416.41049089 -166.03735352 403.01757812 C-166.86291223 402.19175669 -167.68847094 401.36593526 -168.53904658 400.51508893 C-172.68072266 396.37210779 -176.82241942 392.22914733 -180.96412647 388.08619714 C-215.3126243 353.72733603 -249.65749707 319.36485308 -284 285 C-282.44804463 281.29774945 -280.19270125 278.94309194 -277.36821651 276.11932755 C-276.89177542 275.64027916 -276.41533432 275.16123078 -275.92445561 274.66766578 C-274.32047814 273.05737237 -272.70944527 271.45432856 -271.09837341 269.85113525 C-269.93786518 268.68903931 -268.77779492 267.52650584 -267.61812645 266.36357188 C-264.42522941 263.16424875 -261.22610565 259.97121547 -258.02594769 256.7791574 C-254.57788866 253.33766576 -251.13558527 249.89042565 -247.69256592 246.44389343 C-240.94552523 239.69180628 -234.19314783 232.94508029 -227.43896275 226.20014057 C-219.58097025 218.35251915 -211.72819441 210.49968639 -203.87562943 202.64663467 C-189.87049829 188.64100268 -175.86053815 174.6402111 -161.84790039 160.64208984 C-148.23554604 147.0438301 -134.62670607 133.44206602 -121.02172852 119.83642578 C-120.18347361 118.99813092 -119.3452187 118.15983605 -118.48156213 117.29613832 C-117.64478777 116.45932361 -116.80801342 115.62250889 -115.94588226 114.76033616 C-100.47618275 99.28994772 -85.0031994 83.82284739 -69.52867655 68.35728367 C-64.04657974 62.87820931 -58.56546564 57.39815303 -53.08465385 51.91779327 C-46.41207064 45.24589053 -39.73761054 38.57587188 -33.06076365 31.90823588 C-29.65085232 28.50295734 -26.24174938 25.09687967 -22.83477974 21.68865776 C-19.72146026 18.5742494 -16.60586951 15.46213287 -13.48837615 12.35190269 C-12.3556547 11.22100597 -11.22379058 10.08924981 -10.09283143 8.95659068 C-8.56614465 7.42786186 -7.03647149 5.90218831 -5.50594234 4.37730789 C-4.65379491 3.52586488 -3.80164747 2.67442187 -2.92367738 1.79717755 C-1 0 -1 0 0 0 Z " fill="#752828" transform="translate(512,740)"/>
<path d="M0 0 C3.70225055 1.55195537 6.05690806 3.80729875 8.88067245 6.63178349 C9.35972084 7.10822458 9.83876922 7.58466568 10.33233422 8.07554439 C11.94262763 9.67952186 13.54567144 11.29055473 15.14886475 12.90162659 C16.31096069 14.06213482 17.47349416 15.22220508 18.63642812 16.38187355 C21.83575125 19.57477059 25.02878453 22.77389435 28.2208426 25.97405231 C31.66233424 29.42211134 35.10957435 32.86441473 38.55610657 36.30743408 C45.30819372 43.05447477 52.05491971 49.80685217 58.79985943 56.56103725 C66.64748085 64.41902975 74.50031361 72.27180559 82.35336533 80.12437057 C96.35899732 94.12950171 110.3597889 108.13946185 124.35791016 122.15209961 C137.9561699 135.76445396 151.55793398 149.37329393 165.16357422 162.97827148 C166.00186908 163.81652639 166.84016395 164.6547813 167.70386168 165.51843787 C168.54067639 166.35521223 169.37749111 167.19198658 170.23966384 168.05411774 C185.71005228 183.52381725 201.17715261 198.9968006 216.64271633 214.47132345 C222.12179069 219.95342026 227.60184697 225.43453436 233.08220673 230.91534615 C239.75410947 237.58792936 246.42412812 244.26238946 253.09176412 250.93923635 C256.49704266 254.34914768 259.90312033 257.75825062 263.31134224 261.16522026 C266.4257506 264.27853974 269.53786713 267.39413049 272.64809731 270.51162385 C273.77899403 271.6443453 274.91075019 272.77620942 276.04340932 273.90716857 C277.57213814 275.43385535 279.09781169 276.96352851 280.62269211 278.49405766 C281.47413512 279.34620509 282.32557813 280.19835253 283.20282245 281.07632262 C285 283 285 283 285 284 C97.56 284 -89.88 284 -283 284 C-279.34941654 279.74098596 -275.87023655 275.74540838 -271.93570137 271.81265354 C-271.46109879 271.33689712 -270.98649622 270.8611407 -270.49751174 270.37096742 C-268.92152111 268.79234972 -267.34201797 267.21729654 -265.76248169 265.64222717 C-264.61452032 264.4938293 -263.4667789 263.34521152 -262.31923759 262.19639391 C-259.17679893 259.05172583 -256.0312619 255.91017326 -252.88519812 252.76913249 C-249.48877513 249.37703616 -246.09525101 245.98204189 -242.70137024 242.58740234 C-236.82466356 236.71017184 -230.9461317 230.83477208 -225.06634903 224.96061897 C-216.56521793 216.46762193 -208.06685615 207.97185827 -199.56916331 199.47542124 C-185.78146322 185.68990868 -171.9915324 171.90662982 -158.20019531 158.12475586 C-144.80481669 144.73855911 -131.41049089 131.35131035 -118.01757812 117.96264648 C-117.19175669 117.13708777 -116.36593526 116.31152906 -115.51508893 115.46095342 C-111.37210779 111.31927734 -107.22914733 107.17758058 -103.08619714 103.03587353 C-68.72733603 68.6873757 -34.36485308 34.34250293 0 0 Z " fill="#752828" transform="translate(1023,228)"/>
</svg>
